<svg width="150" height="50" viewBox="0 0 150 50" fill="none" xmlns="http://www.w3.org/2000/svg">
  <rect width="150" height="50" fill="#0A0A0A"/>
  <path d="M20 35V15H30C33.3137 15 36 17.6863 36 21C36 24.3137 33.3137 27 30 27H24V35H20Z" fill="#FFFFFF"/>
  <path d="M40 35V15H44V35H40Z" fill="#FFFFFF"/>
  <path d="M50 35V15H54L62 27.4737V15H66V35H62L54 22.5263V35H50Z" fill="#FFFFFF"/>
  <path d="M70 35V15H84V19H74V23H83V27H74V31H84V35H70Z" fill="#FFFFFF"/>
  <path d="M90 35V19H85V15H99V19H94V35H90Z" fill="#FFFFFF"/>
  <path d="M105 35L110 15H115L120 35H116L115 30H110L109 35H105ZM111 26H114L112.5 19.5L111 26Z" fill="#FFFFFF"/>
</svg>
